# xmcd CD database file
#
# Track frame offsets:
#	150
#	15087
#	31908
#	50940
#	70090
#	87388
#	101757
#	119278
#	135508
#	152811
#	167190
#	190134
#	205742
#	221863
#	236292
#	249728
#	261254
#	278091
#	291228
#	306660
#	321753
#	338450
#
# Disc length: 4750 seconds
#
# Revision: 1
# Processed by: cddbd v1.5.2PL0 Copyright (c) Steve Scherf et al.
# Submitted via: CDex 1.51
#
DISCID=45128c16
DTITLE=Various Artist - ZM-VS-CP-020
DYEAR=1900
DGENRE=Blues
TTITLE0=Black Lace - Agadoo
TTITLE1=Russ Abbot - atmosphere
TTITLE2=Boney M - Brown Girl In The Ring
TTITLE3=Dexy's Midnight Runner's - Come On Eileen
TTITLE4=Ottawan - D.I.S.C.O
TTITLE5=Black Lace - Do The Conga
TTITLE6=Brendon - Gimme Some
TTITLE7=Ottawan - Hands Up (give me your heart)
TTITLE8=DJ Otzi - Hey Baby
TTITLE9=Jeff Beck - Hi Ho Silver Lining
TTITLE10=Black Lace - I Am The Music Man
TTITLE11=Nolan's The - I'm In The Mood For Dancing
TTITLE12=Tony Christy - Is This The Way To Amarillo
TTITLE13=Dawn - Knock Three Times
TTITLE14=Toy Dolls - Nellie The Elephant
TTITLE15=1910 Fruitgum Company - Simon Says
TTITLE16=Black Lace  Superman
TTITLE17=Black Lace - The Hokey Cokey
TTITLE18=Kylie Minogue - The Locomotion
TTITLE19=Rocky Horror Picture Show The - Time Warp
TTITLE20=Sylvia - Y Viva Espana
TTITLE21=Village People The - Y.M.C.A
EXTD=
EXTT0=
EXTT1=
EXTT2=
EXTT3=
EXTT4=
EXTT5=
EXTT6=
EXTT7=
EXTT8=
EXTT9=
EXTT10=
EXTT11=
EXTT12=
EXTT13=
EXTT14=
EXTT15=
EXTT16=
EXTT17=
EXTT18=
EXTT19=
EXTT20=
EXTT21=
PLAYORDER=
